<?xml version="1.0" standalone="no"?>
<svg xmlns:xlink="http://www.w3.org/1999/xlink" id="wave" style="transform:rotate(0deg); transition: 0.3s" viewBox="0 0 1440 490" version="1.1" xmlns="http://www.w3.org/2000/svg"><defs><linearGradient id="sw-gradient-0" x1="0" x2="0" y1="1" y2="0"><stop stop-color="rgba(243, 106, 62, 1)" offset="0%"/><stop stop-color="rgba(255, 179, 11, 1)" offset="100%"/></linearGradient></defs><path style="transform:translate(0, 0px); opacity:1" fill="url(#sw-gradient-0)" d="M0,294L60,294C120,294,240,294,360,318.5C480,343,600,392,720,359.3C840,327,960,212,1080,138.8C1200,65,1320,33,1440,24.5C1560,16,1680,33,1800,106.2C1920,180,2040,310,2160,318.5C2280,327,2400,212,2520,179.7C2640,147,2760,196,2880,245C3000,294,3120,343,3240,367.5C3360,392,3480,392,3600,392C3720,392,3840,392,3960,400.2C4080,408,4200,425,4320,383.8C4440,343,4560,245,4680,212.3C4800,180,4920,212,5040,204.2C5160,196,5280,147,5400,122.5C5520,98,5640,98,5760,130.7C5880,163,6000,229,6120,253.2C6240,278,6360,261,6480,228.7C6600,196,6720,147,6840,179.7C6960,212,7080,327,7200,310.3C7320,294,7440,147,7560,122.5C7680,98,7800,196,7920,220.5C8040,245,8160,196,8280,204.2C8400,212,8520,278,8580,310.3L8640,343L8640,490L8580,490C8520,490,8400,490,8280,490C8160,490,8040,490,7920,490C7800,490,7680,490,7560,490C7440,490,7320,490,7200,490C7080,490,6960,490,6840,490C6720,490,6600,490,6480,490C6360,490,6240,490,6120,490C6000,490,5880,490,5760,490C5640,490,5520,490,5400,490C5280,490,5160,490,5040,490C4920,490,4800,490,4680,490C4560,490,4440,490,4320,490C4200,490,4080,490,3960,490C3840,490,3720,490,3600,490C3480,490,3360,490,3240,490C3120,490,3000,490,2880,490C2760,490,2640,490,2520,490C2400,490,2280,490,2160,490C2040,490,1920,490,1800,490C1680,490,1560,490,1440,490C1320,490,1200,490,1080,490C960,490,840,490,720,490C600,490,480,490,360,490C240,490,120,490,60,490L0,490Z"/></svg>