<?xml version="1.0" standalone="no"?>
<svg xmlns:xlink="http://www.w3.org/1999/xlink" id="wave" style="transform:rotate(0deg); transition: 0.3s" viewBox="0 0 1440 490" version="1.1" xmlns="http://www.w3.org/2000/svg"><defs><linearGradient id="sw-gradient-0" x1="0" x2="0" y1="1" y2="0"><stop stop-color="rgba(228.049, 98.761, 57.238, 1)" offset="0%"/><stop stop-color="rgba(255, 177.57, 6.407, 1)" offset="100%"/></linearGradient></defs><path style="transform:translate(0, 0px); opacity:1" fill="url(#sw-gradient-0)" d="M0,245L24,269.5C48,294,96,343,144,351.2C192,359,240,327,288,294C336,261,384,229,432,220.5C480,212,528,229,576,212.3C624,196,672,147,720,130.7C768,114,816,131,864,187.8C912,245,960,343,1008,334.8C1056,327,1104,212,1152,155.2C1200,98,1248,98,1296,122.5C1344,147,1392,196,1440,253.2C1488,310,1536,376,1584,343C1632,310,1680,180,1728,155.2C1776,131,1824,212,1872,228.7C1920,245,1968,196,2016,187.8C2064,180,2112,212,2160,236.8C2208,261,2256,278,2304,245C2352,212,2400,131,2448,89.8C2496,49,2544,49,2592,49C2640,49,2688,49,2736,106.2C2784,163,2832,278,2880,318.5C2928,359,2976,327,3024,302.2C3072,278,3120,261,3168,236.8C3216,212,3264,180,3312,187.8C3360,196,3408,245,3432,269.5L3456,294L3456,490L3432,490C3408,490,3360,490,3312,490C3264,490,3216,490,3168,490C3120,490,3072,490,3024,490C2976,490,2928,490,2880,490C2832,490,2784,490,2736,490C2688,490,2640,490,2592,490C2544,490,2496,490,2448,490C2400,490,2352,490,2304,490C2256,490,2208,490,2160,490C2112,490,2064,490,2016,490C1968,490,1920,490,1872,490C1824,490,1776,490,1728,490C1680,490,1632,490,1584,490C1536,490,1488,490,1440,490C1392,490,1344,490,1296,490C1248,490,1200,490,1152,490C1104,490,1056,490,1008,490C960,490,912,490,864,490C816,490,768,490,720,490C672,490,624,490,576,490C528,490,480,490,432,490C384,490,336,490,288,490C240,490,192,490,144,490C96,490,48,490,24,490L0,490Z"/></svg>