<?xml version="1.0" standalone="no"?>
<svg xmlns:xlink="http://www.w3.org/1999/xlink" id="wave" style="transform:rotate(0deg); transition: 0.3s" viewBox="0 0 1440 490" version="1.1" xmlns="http://www.w3.org/2000/svg"><defs><linearGradient id="sw-gradient-0" x1="0" x2="0" y1="1" y2="0"><stop stop-color="rgba(243, 106, 62, 1)" offset="0%"/><stop stop-color="rgba(255, 179, 11, 1)" offset="100%"/></linearGradient></defs><path style="transform:translate(0, 0px); opacity:1" fill="url(#sw-gradient-0)" d="M0,392L80,359.3C160,327,320,261,480,253.2C640,245,800,294,960,261.3C1120,229,1280,114,1440,57.2C1600,0,1760,0,1920,24.5C2080,49,2240,98,2400,98C2560,98,2720,49,2880,98C3040,147,3200,294,3360,294C3520,294,3680,147,3840,122.5C4000,98,4160,196,4320,228.7C4480,261,4640,229,4800,179.7C4960,131,5120,65,5280,81.7C5440,98,5600,196,5760,212.3C5920,229,6080,163,6240,130.7C6400,98,6560,98,6720,81.7C6880,65,7040,33,7200,73.5C7360,114,7520,229,7680,236.8C7840,245,8000,147,8160,138.8C8320,131,8480,212,8640,220.5C8800,229,8960,163,9120,187.8C9280,212,9440,327,9600,359.3C9760,392,9920,343,10080,285.8C10240,229,10400,163,10560,171.5C10720,180,10880,261,11040,302.2C11200,343,11360,343,11440,343L11520,343L11520,490L11440,490C11360,490,11200,490,11040,490C10880,490,10720,490,10560,490C10400,490,10240,490,10080,490C9920,490,9760,490,9600,490C9440,490,9280,490,9120,490C8960,490,8800,490,8640,490C8480,490,8320,490,8160,490C8000,490,7840,490,7680,490C7520,490,7360,490,7200,490C7040,490,6880,490,6720,490C6560,490,6400,490,6240,490C6080,490,5920,490,5760,490C5600,490,5440,490,5280,490C5120,490,4960,490,4800,490C4640,490,4480,490,4320,490C4160,490,4000,490,3840,490C3680,490,3520,490,3360,490C3200,490,3040,490,2880,490C2720,490,2560,490,2400,490C2240,490,2080,490,1920,490C1760,490,1600,490,1440,490C1280,490,1120,490,960,490C800,490,640,490,480,490C320,490,160,490,80,490L0,490Z"/><defs><linearGradient id="sw-gradient-1" x1="0" x2="0" y1="1" y2="0"><stop stop-color="rgba(243, 106, 62, 1)" offset="0%"/><stop stop-color="rgba(255, 179, 11, 1)" offset="100%"/></linearGradient></defs><path style="transform:translate(0, 50px); opacity:0.9" fill="url(#sw-gradient-1)" d="M0,245L80,245C160,245,320,245,480,236.8C640,229,800,212,960,179.7C1120,147,1280,98,1440,114.3C1600,131,1760,212,1920,228.7C2080,245,2240,196,2400,187.8C2560,180,2720,212,2880,212.3C3040,212,3200,180,3360,163.3C3520,147,3680,147,3840,163.3C4000,180,4160,212,4320,253.2C4480,294,4640,343,4800,334.8C4960,327,5120,261,5280,196C5440,131,5600,65,5760,40.8C5920,16,6080,33,6240,32.7C6400,33,6560,16,6720,8.2C6880,0,7040,0,7200,73.5C7360,147,7520,294,7680,302.2C7840,310,8000,180,8160,179.7C8320,180,8480,310,8640,318.5C8800,327,8960,212,9120,155.2C9280,98,9440,98,9600,138.8C9760,180,9920,261,10080,318.5C10240,376,10400,408,10560,400.2C10720,392,10880,343,11040,334.8C11200,327,11360,359,11440,375.7L11520,392L11520,490L11440,490C11360,490,11200,490,11040,490C10880,490,10720,490,10560,490C10400,490,10240,490,10080,490C9920,490,9760,490,9600,490C9440,490,9280,490,9120,490C8960,490,8800,490,8640,490C8480,490,8320,490,8160,490C8000,490,7840,490,7680,490C7520,490,7360,490,7200,490C7040,490,6880,490,6720,490C6560,490,6400,490,6240,490C6080,490,5920,490,5760,490C5600,490,5440,490,5280,490C5120,490,4960,490,4800,490C4640,490,4480,490,4320,490C4160,490,4000,490,3840,490C3680,490,3520,490,3360,490C3200,490,3040,490,2880,490C2720,490,2560,490,2400,490C2240,490,2080,490,1920,490C1760,490,1600,490,1440,490C1280,490,1120,490,960,490C800,490,640,490,480,490C320,490,160,490,80,490L0,490Z"/></svg>